<?xml version="1.0" standalone="no"?>
<!DOCTYPE svg PUBLIC "-//W3C//DTD SVG 20010904//EN"
 "http://www.w3.org/TR/2001/REC-SVG-20010904/DTD/svg10.dtd">
<svg version="1.0" xmlns="http://www.w3.org/2000/svg"
 width="900.000000pt" height="801.000000pt" viewBox="0 0 900.000000 801.000000"
 preserveAspectRatio="xMidYMid meet">
<metadata>
Created by potrace 1.10, written by Peter Selinger 2001-2011
</metadata>
<g transform="translate(0.000000,801.000000) scale(0.100000,-0.100000)"
fill="#000000" stroke="none">
<path d="M1526 6725 c-15 -8 -33 -15 -40 -15 -21 0 -101 -86 -126 -136 l-25
-49 -3 -881 c-2 -746 -1 -883 11 -893 11 -8 116 -11 393 -9 l379 3 3 883 2
883 -31 62 c-39 80 -59 101 -134 137 -61 30 -63 30 -231 30 -130 0 -176 -4
-198 -15z"/>
<path d="M2631 6720 c-19 -11 -47 -38 -62 -62 l-29 -43 3 -935 2 -935 182 -3
c173 -2 183 -1 193 18 7 14 10 295 8 927 -3 838 -4 911 -20 943 -24 49 -38 64
-78 89 -46 28 -150 28 -199 1z"/>
<path d="M3536 6725 c-15 -8 -33 -15 -39 -15 -25 0 -96 -73 -123 -127 l-29
-58 -3 -881 c-2 -745 0 -883 11 -893 11 -8 117 -11 393 -9 l379 3 0 890 0 890
-28 55 c-34 65 -73 103 -144 136 -48 22 -63 24 -220 24 -129 0 -175 -4 -197
-15z"/>
<path d="M4725 6719 c-59 -23 -137 -102 -160 -163 -14 -36 -15 -149 -13 -926
l3 -885 385 0 385 0 3 887 2 887 -26 55 c-32 67 -87 120 -154 146 -44 17 -73
20 -213 19 -136 0 -170 -3 -212 -20z"/>
<path d="M6249 6720 c-41 -22 -69 -58 -86 -115 -10 -31 -13 -253 -13 -946 0
-818 2 -907 16 -913 9 -3 91 -6 184 -6 131 0 170 3 179 14 9 10 11 251 9 937
l-3 924 -24 41 c-35 58 -85 84 -163 84 -42 -1 -75 -7 -99 -20z"/>
<path d="M7140 6722 c-61 -23 -141 -104 -165 -167 -18 -47 -19 -94 -22 -913
-3 -598 0 -868 7 -882 10 -19 21 -20 388 -20 281 0 381 3 390 12 18 18 16
1669 -2 1753 -22 104 -83 179 -174 214 -46 18 -73 21 -215 20 -126 0 -172 -4
-207 -17z"/>
<path d="M760 4221 c-128 -26 -230 -150 -230 -280 0 -119 63 -223 167 -273
l48 -23 3795 0 3795 0 50 26 c106 56 157 142 157 263 0 125 -56 214 -170 268
l-47 23 -3765 1 c-2071 1 -3781 -1 -3800 -5z"/>
<path d="M1341 3116 c-9 -10 -11 -233 -9 -892 l3 -879 29 -58 c33 -67 88 -116
161 -143 74 -28 326 -27 404 1 75 28 141 93 169 170 l22 60 -2 875 -3 875
-381 3 c-318 2 -383 0 -393 -12z"/>
<path d="M2547 3123 c-4 -3 -7 -425 -7 -936 l0 -930 21 -34 c12 -19 40 -48 62
-64 34 -25 49 -29 104 -29 84 0 132 27 170 95 l28 50 3 912 c2 823 1 913 -13
927 -14 13 -44 16 -189 16 -95 0 -176 -3 -179 -7z"/>
<path d="M3351 3116 c-9 -10 -11 -240 -9 -892 l3 -879 26 -56 c31 -64 90 -117
164 -145 71 -27 342 -28 394 -1 19 9 40 17 47 17 28 0 110 95 132 153 l22 59
0 863 c0 475 -3 870 -6 879 -5 14 -49 16 -384 16 -310 0 -380 -2 -389 -14z"/>
<path d="M4557 3123 c-4 -3 -7 -404 -7 -890 l0 -884 25 -55 c31 -67 72 -107
145 -142 52 -24 65 -26 210 -26 139 -1 161 1 216 22 81 31 135 83 162 158 l22
59 -2 880 -3 880 -381 3 c-209 1 -383 -1 -387 -5z"/>
<path d="M6163 3123 c-19 -7 -18 -1799 0 -1858 29 -96 83 -135 185 -135 79 0
124 24 163 87 l24 38 3 924 c2 686 0 927 -9 937 -9 11 -48 14 -183 13 -94 0
-177 -3 -183 -6z"/>
<path d="M6965 3114 c-14 -15 -15 -98 -12 -883 2 -793 4 -870 20 -909 37 -91
73 -131 156 -169 53 -25 65 -26 221 -27 158 0 167 1 220 26 66 31 110 70 134
118 45 88 45 101 46 992 0 828 0 848 -19 858 -13 6 -152 10 -385 10 -321 0
-366 -2 -381 -16z"/>
</g>
</svg>
